<?xml version="1.0" encoding="utf-8"?>
<!-- Generator: Adobe Illustrator 16.0.0, SVG Export Plug-In . SVG Version: 6.00 Build 0)  -->
<!DOCTYPE svg PUBLIC "-//W3C//DTD SVG 1.1//EN" "http://www.w3.org/Graphics/SVG/1.1/DTD/svg11.dtd">
<svg version="1.1" id="Layer_1" xmlns="http://www.w3.org/2000/svg" xmlns:xlink="http://www.w3.org/1999/xlink" x="0px" y="0px"
	 width="792px" height="612px" viewBox="0 0 792 612" enable-background="new 0 0 792 612" xml:space="preserve">
<g>
	<g>
		<path fill="#856408" d="M701.532,236.195c-0.001-0.92-0.206-2.311-0.563-3.111c-0.939-3.412-3.031-6.527-6.161-8.703
			l-87.604-60.899V98.199c0-8.654-7.021-15.673-15.673-15.673H490.74l-85.756-59.62c-5.359-3.73-12.477-3.746-17.853-0.031
			l-86.309,59.651H200.478c-8.657,0-15.673,7.019-15.673,15.673v64.514l-88.033,60.843c-4.331,2.993-6.673,7.778-6.748,12.67
			c-0.004,0.092-0.025,0.179-0.025,0.275l0.467,339.75c0.006,4.155,1.663,8.14,4.604,11.075c2.938,2.93,6.918,4.574,11.068,4.574
			c0.008,0,0.015,0,0.021,0l580.187-0.799c8.654-0.012,15.663-7.037,15.651-15.692L701.532,236.195z M607.2,201.659l50.081,34.805
			L607.2,271.281V201.659z M396.018,54.846l39.816,27.679h-79.861L396.018,54.846z M216.151,113.872h359.703v179.202l-120.77,83.961
			l-49.238-38.195c-0.078-0.06-0.144-0.097-0.217-0.148c-5.504-4.131-13.288-4.28-18.999,0.148l-49.597,38.473l-120.882-83.543
			V113.872L216.151,113.872z M184.805,200.816v71.289l-51.573-35.643L184.805,200.816z M121.387,266.396l189.659,131.072
			L121.769,544.281L121.387,266.396z M152.007,560.493l244.231-189.438l243.355,188.77L152.007,560.493z M481.039,397.168
			L670.229,265.64l0.385,278.579L481.039,397.168z"/>
	</g>
</g>
<g>
	<g>
		<path fill="#FFFFFF" d="M502.107,176.563h-212.21c-8.654,0-15.673,7.019-15.673,15.673c0,8.654,7.019,15.673,15.673,15.673h212.21
			c8.655,0,15.674-7.019,15.674-15.673C517.781,183.582,510.765,176.563,502.107,176.563z"/>
	</g>
</g>
<g>
	<g>
		<path fill="#FFFFFF" d="M502.107,258.062h-212.21c-8.654,0-15.673,7.019-15.673,15.673c0,8.654,7.019,15.673,15.673,15.673h212.21
			c8.655,0,15.674-7.019,15.674-15.673C517.781,265.081,510.765,258.062,502.107,258.062z"/>
	</g>
</g>
</svg>
