<?xml version="1.0" encoding="utf-8"?>
<!-- Generator: Adobe Illustrator 16.0.0, SVG Export Plug-In . SVG Version: 6.00 Build 0)  -->
<!DOCTYPE svg PUBLIC "-//W3C//DTD SVG 1.1//EN" "http://www.w3.org/Graphics/SVG/1.1/DTD/svg11.dtd">
<svg version="1.1" id="Capa_1" xmlns="http://www.w3.org/2000/svg" xmlns:xlink="http://www.w3.org/1999/xlink" x="0px" y="0px"
	 width="465.2px" height="465.2px" viewBox="0 0 465.2 465.2" enable-background="new 0 0 465.2 465.2" xml:space="preserve">
<g>
	<path fill="#FFFFFF" d="M344.314,34.021C340.591,15.777,324.428,2,305.095,2c-4.417,0-8.004,3.578-8.004,8.005
		s3.587,8.005,8.004,8.005c13.241,0,24.017,10.775,24.017,24.016s-10.775,24.015-24.017,24.015c-4.417,0-8.004,3.579-8.004,8.005
		c0,4.427,3.587,8.005,8.004,8.005c19.326,0,35.496-13.777,39.219-32.021h104.875v56.036h-96.062h-16.011h-96.062h-16.01h-96.062
		h-16.01H16.91V50.031h112.072h24.016c4.418,0,8.005-3.578,8.005-8.005c0-4.427-3.587-8.005-8.005-8.005h-14.537
		c3.314-9.302,12.119-16.01,22.542-16.01c13.24,0,24.015,10.775,24.015,24.016s-10.775,24.015-24.015,24.015
		c-4.419,0-8.005,3.579-8.005,8.005c0,4.427,3.586,8.005,8.005,8.005c22.07,0,40.025-17.956,40.025-40.025
		C201.029,19.956,183.073,2,161.003,2c-19.325,0-35.495,13.777-39.217,32.021H0.9v72.046v24.016v88.057v16.01v96.062v16.01v112.074
		h112.072h16.01h96.062h16.01h96.062h16.011H465.2V346.221v-16.01v-96.062v-16.01v-88.057v-24.016V34.021H344.314z M241.054,122.077
		h96.062v96.062h-96.062V122.077z M337.117,330.211h-96.062v-96.062h96.062V330.211z M128.982,234.149h96.062v96.062h-96.062
		V234.149z M128.982,122.077h96.062v96.062h-96.062V122.077z M16.91,130.083v-8.005h96.062v96.062H16.91V130.083z M16.91,234.149
		h96.062v96.062H16.91V234.149z M16.91,442.284v-96.062h96.062v96.062H16.91z M128.982,442.284v-96.062h96.062v96.062H128.982z
		 M241.054,442.284v-96.062h96.062v96.062H241.054z M449.189,442.284h-96.062v-96.062h96.062V442.284z M449.189,330.211h-96.062
		v-96.062h96.062V330.211z M353.127,218.139v-96.062h96.062v8.005v88.057H353.127z"/>
	<path fill="#FFFFFF" d="M209.034,18.01c13.241,0,24.016,10.775,24.016,24.016s-10.775,24.015-24.016,24.015
		c-4.419,0-8.005,3.579-8.005,8.005c0,4.427,3.586,8.005,8.005,8.005c22.07,0,40.026-17.956,40.026-40.025
		C249.06,19.956,231.104,2,209.034,2c-4.419,0-8.005,3.578-8.005,8.005S204.615,18.01,209.034,18.01z"/>
	<path fill="#FFFFFF" d="M257.065,18.01c13.241,0,24.016,10.775,24.016,24.016s-10.774,24.015-24.016,24.015
		c-4.419,0-8.005,3.579-8.005,8.005c0,4.427,3.586,8.005,8.005,8.005c22.07,0,40.026-17.956,40.026-40.025
		C297.091,19.956,279.135,2,257.065,2c-4.419,0-8.005,3.578-8.005,8.005S252.646,18.01,257.065,18.01z"/>
	<path fill="#FFFFFF" d="M251.406,319.86c1.561,1.562,3.609,2.346,5.659,2.346c2.049,0,4.099-0.783,5.66-2.346l26.36-26.359
		l26.361,26.359c1.561,1.562,3.61,2.346,5.659,2.346c2.05,0,4.099-0.783,5.66-2.346c3.13-3.129,3.13-8.188,0-11.318l-26.361-26.361
		l26.361-26.359c3.13-3.131,3.13-8.189,0-11.32s-8.189-3.131-11.319,0l-26.361,26.361l-26.36-26.361
		c-3.131-3.131-8.189-3.131-11.319,0c-3.131,3.131-3.131,8.189,0,11.32l26.361,26.359l-26.361,26.361
		C248.275,311.672,248.275,316.731,251.406,319.86z"/>
</g>
</svg>
