<?xml version="1.0" encoding="utf-8"?>
<!-- Generator: Adobe Illustrator 16.0.0, SVG Export Plug-In . SVG Version: 6.00 Build 0)  -->
<!DOCTYPE svg PUBLIC "-//W3C//DTD SVG 1.1//EN" "http://www.w3.org/Graphics/SVG/1.1/DTD/svg11.dtd">
<svg version="1.1" id="Capa_1" xmlns="http://www.w3.org/2000/svg" xmlns:xlink="http://www.w3.org/1999/xlink" x="0px" y="0px"
	 width="465.2px" height="465.2px" viewBox="0 0 465.2 465.2" enable-background="new 0 0 465.2 465.2" xml:space="preserve">
<g>
	<g id="Layer_2_16_">
		<g>
			<path fill="#FFFFFF" d="M279.59,423.713c-3.836,0.957-7.746,1.805-11.629,2.521c-10.147,1.887-16.856,11.646-14.979,21.803
				c0.927,4.998,3.765,9.16,7.618,11.877c3.971,2.795,9.025,4.057,14.175,3.098c4.623-0.857,9.282-1.867,13.854-3.008
				c10.021-2.494,16.125-12.645,13.625-22.662C299.76,427.319,289.618,421.217,279.59,423.713z"/>
			<path fill="#FFFFFF" d="M417.887,173.047c1.31,3.948,3.811,7.171,6.971,9.398c4.684,3.299,10.812,4.409,16.66,2.475
				c9.807-3.256,15.119-13.83,11.875-23.631c-1.477-4.468-3.117-8.95-4.863-13.314c-3.836-9.59-14.715-14.259-24.311-10.423
				c-9.584,3.834-14.256,14.715-10.416,24.308C415.271,165.528,416.646,169.293,417.887,173.047z"/>
			<path fill="#FFFFFF" d="M340.36,397.012c-3.299,2.18-6.704,4.287-10.134,6.262c-8.949,5.162-12.015,16.602-6.854,25.547
				c1.401,2.432,3.268,4.422,5.416,5.941c5.77,4.059,13.604,4.666,20.127,0.908c4.078-2.352,8.133-4.854,12.062-7.451
				c8.613-5.691,10.984-17.295,5.291-25.912C360.575,393.686,348.977,391.319,340.36,397.012z"/>
			<path fill="#FFFFFF" d="M465.022,225.279c-0.406-10.322-9.102-18.356-19.426-17.953c-10.312,0.407-18.352,9.104-17.947,19.422
				c0.154,3.945,0.195,7.95,0.104,11.89c-0.145,6.473,3.021,12.243,7.941,15.711c2.932,2.063,6.488,3.313,10.346,3.401
				c10.322,0.229,18.875-7.959,19.105-18.285C465.247,234.756,465.208,229.985,465.022,225.279z"/>
			<path fill="#FFFFFF" d="M414.834,347.817c-8.276-6.211-19.986-4.525-26.186,3.736c-2.374,3.164-4.874,6.289-7.434,9.299
				c-6.69,7.859-5.745,19.666,2.115,26.361c0.447,0.379,0.9,0.729,1.371,1.057c7.813,5.51,18.674,4.242,24.991-3.172
				c3.058-3.59,6.037-7.322,8.874-11.102C424.766,365.735,423.088,354.016,414.834,347.817z"/>
			<path fill="#FFFFFF" d="M442.325,280.213c-9.855-3.09-20.35,2.396-23.438,12.25c-1.182,3.766-2.492,7.549-3.906,11.254
				c-3.105,8.156-0.13,17.129,6.689,21.939c1.252,0.879,2.629,1.623,4.127,2.189c9.648,3.682,20.453-1.158,24.131-10.812
				c1.68-4.404,3.238-8.906,4.646-13.381C457.661,293.795,452.178,283.303,442.325,280.213z"/>
			<path fill="#FFFFFF" d="M197.999,426.403c-16.72-3.002-32.759-8.115-47.968-15.244c-0.18-0.094-0.341-0.201-0.53-0.287
				c-3.584-1.688-7.162-3.494-10.63-5.383c-0.012-0.014-0.034-0.023-0.053-0.031c-6.363-3.504-12.573-7.381-18.606-11.627
				C32.24,331.86,11.088,209.872,73.062,121.901c13.476-19.122,29.784-35.075,47.965-47.719c0.224-0.156,0.448-0.311,0.67-0.468
				c64.067-44.144,151.06-47.119,219.089-1.757l-14.611,21.111c-4.062,5.876-1.562,10.158,5.549,9.518l63.467-5.682
				c7.12-0.64,11.378-6.799,9.463-13.675L387.61,21.823c-1.908-6.884-6.793-7.708-10.859-1.833l-14.645,21.161
				C312.182,7.638,252.303-5.141,192.87,5.165c-5.986,1.036-11.888,2.304-17.709,3.78c-0.045,0.008-0.081,0.013-0.117,0.021
				c-0.225,0.055-0.453,0.128-0.672,0.189c-51.25,13.161-95.965,43.052-127.872,85.7c-0.269,0.319-0.546,0.631-0.8,0.978
				c-1.061,1.429-2.114,2.891-3.145,4.353c-1.686,2.396-3.348,4.852-4.938,7.308c-0.199,0.296-0.351,0.597-0.525,0.896
				c-26.33,40.801-39.03,87.971-36.852,135.993c0.005,0.158-0.004,0.316,0,0.479c0.211,4.691,0.583,9.447,1.088,14.129
				c0.027,0.303,0.094,0.588,0.145,0.891c0.522,4.707,1.177,9.427,1.998,14.145c8.344,48.139,31.052,91.455,65.079,125.16
				c0.079,0.078,0.161,0.164,0.241,0.246c0.028,0.031,0.059,0.049,0.086,0.076c9.142,9.018,19.086,17.357,29.793,24.898
				c28.02,19.744,59.221,32.795,92.729,38.809c10.167,1.826,19.879-4.941,21.703-15.104
				C214.925,437.944,208.163,428.223,197.999,426.403z"/>
			<path fill="#FFFFFF" d="M221.124,83.198c-8.363,0-15.137,6.78-15.137,15.131v150.748l137.87,71.27
				c2.22,1.15,4.595,1.691,6.933,1.691c5.477,0,10.766-2.982,13.455-8.186c3.834-7.426,0.933-16.549-6.494-20.385L236.245,230.65
				V98.329C236.243,89.978,229.477,83.198,221.124,83.198z"/>
		</g>
	</g>
</g>
</svg>
