<?xml version="1.0" encoding="utf-8"?>
<!-- Generator: Adobe Illustrator 16.0.0, SVG Export Plug-In . SVG Version: 6.00 Build 0)  -->
<!DOCTYPE svg PUBLIC "-//W3C//DTD SVG 1.1//EN" "http://www.w3.org/Graphics/SVG/1.1/DTD/svg11.dtd">
<svg version="1.1" id="Layer_1" xmlns="http://www.w3.org/2000/svg" xmlns:xlink="http://www.w3.org/1999/xlink" x="0px" y="0px"
	 width="512px" height="512px" viewBox="0 0 512 512" enable-background="new 0 0 512 512" xml:space="preserve">
<path fill="#FFEBD2" d="M224.643,386.945v34.593l-8.365-6.757c-1.293-1.045-32.045-26.013-63.23-61.815
	c-43.02-49.39-64.831-93.725-64.831-131.769v-3.771C88.217,142.2,149.417,81,224.643,81s136.426,61.2,136.426,136.426v3.771
	c0,3.195-0.169,6.439-0.477,9.723l-26.681-24.339c-5.464-55.476-52.381-98.961-109.269-98.961
	c-60.546,0-109.807,49.261-109.807,109.807v3.771C114.836,285.486,197.669,363.312,224.643,386.945z M306.498,367.826h39.929v-39.93
	h-39.929V367.826z M224.643,160.859c31.19,0,56.568,25.377,56.568,56.567s-25.378,56.568-56.568,56.568
	c-31.19,0-56.567-25.377-56.567-56.568S193.453,160.859,224.643,160.859z M224.643,187.479c-16.514,0-29.948,13.434-29.948,29.948
	c0,16.511,13.434,29.948,29.948,29.948c16.511,0,29.948-13.437,29.948-29.948C254.591,200.913,241.154,187.479,224.643,187.479z
	 M411.844,349.738l-7.484-6.828v42.735c0,19.898-16.191,36.087-36.091,36.087h-84.277c-19.899,0-36.091-16.188-36.091-36.087V342.91
	l-7.484,6.828l-17.939-19.666l103.651-94.561l103.655,94.561L411.844,349.738z M377.74,318.626l-51.611-47.082l-51.608,47.082
	v67.017c0,5.222,4.248,9.47,9.471,9.47h84.278c5.223,0,9.471-4.248,9.471-9.47V318.626z"/>
</svg>
