<?xml version="1.0" encoding="utf-8"?>
<!-- Generator: Adobe Illustrator 16.0.0, SVG Export Plug-In . SVG Version: 6.00 Build 0)  -->
<!DOCTYPE svg PUBLIC "-//W3C//DTD SVG 1.1//EN" "http://www.w3.org/Graphics/SVG/1.1/DTD/svg11.dtd">
<svg version="1.1" id="Layer_1" xmlns="http://www.w3.org/2000/svg" xmlns:xlink="http://www.w3.org/1999/xlink" x="0px" y="0px"
	 width="792px" height="612px" viewBox="0 0 792 612" enable-background="new 0 0 792 612" xml:space="preserve">
<g>
	<path fill="#BB903D" d="M715.355,0H76.646C34.49,0,0,29.435,0,65.411c0,35.977,34.49,65.411,76.646,65.411h638.71
		c42.151,0,76.645-29.434,76.645-65.411C792,29.435,757.507,0,715.355,0z"/>
	<path fill="#BB903D" d="M715.355,239.839H76.646C34.49,239.839,0,269.273,0,305.25c0,35.974,34.49,65.41,76.646,65.41h638.71
		c42.151,0,76.645-29.438,76.645-65.41C792,269.273,757.507,239.839,715.355,239.839z"/>
	<path fill="#BB903D" d="M715.355,479.679H76.646C34.49,479.679,0,509.115,0,545.09s34.49,65.41,76.646,65.41h638.71
		c42.151,0,76.645-29.438,76.645-65.41C792,509.115,757.507,479.679,715.355,479.679z"/>
</g>
</svg>
