<?xml version="1.0" encoding="utf-8"?>
<!-- Generator: Adobe Illustrator 16.0.0, SVG Export Plug-In . SVG Version: 6.00 Build 0)  -->
<!DOCTYPE svg PUBLIC "-//W3C//DTD SVG 1.1//EN" "http://www.w3.org/Graphics/SVG/1.1/DTD/svg11.dtd">
<svg version="1.1" id="Capa_1" xmlns="http://www.w3.org/2000/svg" xmlns:xlink="http://www.w3.org/1999/xlink" x="0px" y="0px"
	 width="792px" height="612px" viewBox="0 0 792 612" enable-background="new 0 0 792 612" xml:space="preserve">
<g>
	<g>
		<path fill="#856408" d="M393.782,329.763c0.634,0,1.267,0,2.028,0c0.253,0,0.507,0,0.76,0c0.381,0,0.887,0,1.268,0
			c37.133-0.634,67.169-13.688,89.348-38.654c48.793-55.003,40.684-149.293,39.796-158.292
			c-3.169-67.549-35.104-99.866-61.468-114.948C445.87,6.59,422.931,0.507,397.33,0h-0.887c-0.126,0-0.38,0-0.507,0h-0.76
			c-14.067,0-41.696,2.281-68.183,17.363c-26.614,15.081-59.058,47.398-62.227,115.455c-0.887,8.998-8.998,103.289,39.794,158.292
			C326.613,316.075,356.649,329.129,393.782,329.763z M298.604,135.986c0-0.38,0.127-0.76,0.127-1.014
			c4.182-90.869,68.69-100.627,96.318-100.627h0.507c0.253,0,0.633,0,1.014,0c34.219,0.761,92.39,14.702,96.316,100.627
			c0,0.38,0,0.76,0.127,1.014c0.126,0.887,8.998,87.066-31.304,132.438c-15.969,17.996-37.26,26.868-65.269,27.121
			c-0.253,0-0.38,0-0.633,0l0,0c-0.253,0-0.38,0-0.634,0c-27.881-0.253-49.3-9.125-65.142-27.121
			C289.86,223.306,298.478,136.746,298.604,135.986z"/>
		<path fill="#856408" d="M656.249,486.152c0-0.126,0-0.253,0-0.38c0-1.016-0.127-2.027-0.127-3.17
			c-0.761-25.094-2.408-83.771-57.41-102.526c-0.381-0.127-0.888-0.254-1.268-0.38c-57.157-14.574-104.685-47.525-105.189-47.906
			c-7.729-5.449-18.377-3.548-23.826,4.183c-5.447,7.731-3.549,18.377,4.185,23.826c2.152,1.521,52.595,36.626,115.708,52.848
			c29.527,10.521,32.823,42.076,33.711,70.974c0,1.141,0,2.154,0.127,3.168c0.127,11.406-0.634,29.021-2.661,39.161
			c-20.531,11.659-101.008,51.961-223.433,51.961c-121.918,0-202.902-40.43-223.56-52.088c-2.027-10.141-2.915-27.755-2.661-39.16
			c0-1.017,0.126-2.028,0.126-3.169c0.887-28.896,4.182-60.452,33.711-70.973c63.114-16.223,113.554-51.453,115.708-52.849
			c7.731-5.449,9.632-16.095,4.182-23.826c-5.449-7.729-16.095-9.632-23.826-4.182c-0.507,0.38-47.779,33.331-105.189,47.905
			c-0.507,0.127-0.887,0.254-1.267,0.38c-55.003,18.884-56.65,77.562-57.411,102.526c0,1.143,0,2.154-0.127,3.168
			c0,0.127,0,0.255,0,0.383c-0.126,6.59-0.253,40.428,6.463,57.408c1.268,3.295,3.549,6.083,6.59,7.984
			c3.804,2.536,94.926,60.58,247.387,60.58c152.461,0,243.583-58.171,247.385-60.579c2.915-1.901,5.323-4.688,6.591-7.982
			C656.502,526.581,656.376,492.743,656.249,486.152z"/>
	</g>
</g>
</svg>
