<?xml version="1.0" encoding="utf-8"?>
<!-- Generator: Adobe Illustrator 16.0.0, SVG Export Plug-In . SVG Version: 6.00 Build 0)  -->
<!DOCTYPE svg PUBLIC "-//W3C//DTD SVG 1.1//EN" "http://www.w3.org/Graphics/SVG/1.1/DTD/svg11.dtd">
<svg version="1.1" id="Layer_1" xmlns="http://www.w3.org/2000/svg" xmlns:xlink="http://www.w3.org/1999/xlink" x="0px" y="0px"
	 width="792px" height="612px" viewBox="0 0 792 612" enable-background="new 0 0 792 612" xml:space="preserve">
<g>
	<g>
		<g>
			<path fill="#856408" d="M252.455,552.289C248.313,528.309,227.352,510,202.199,510c-20.083,0-37.485,11.669-45.798,28.58
				c-1.643-1.172-3.397-2.214-5.202-3.151V367.2c0-5.63-4.57-10.2-10.2-10.2s-10.199,4.57-10.199,10.2v163.199
				c-22.501,0-40.8,18.299-40.8,40.801s18.299,40.8,40.8,40.8H243c16.871,0,30.6-13.729,30.6-30.6
				C273.6,567.823,264.715,556.288,252.455,552.289z M243,591.6H130.8c-11.25,0-20.4-9.148-20.4-20.4s9.15-20.399,20.4-20.399
				c9.517,0,17.973,5.528,21.042,13.771c1.724,4.621,6.498,7.344,11.374,6.467c4.855-0.878,8.384-5.101,8.384-10.037
				c0-16.871,13.729-30.601,30.6-30.601s30.6,13.729,30.6,30.601c0,5.63,4.569,10.199,10.2,10.199
				c5.62,0,10.199,4.579,10.199,10.199C253.198,587.02,248.62,591.6,243,591.6z"/>
			<path fill="#856408" d="M691.801,81.601H498c-5.63,0-10.2,4.569-10.2,10.199S492.37,102,498,102h183.6v220.178L403.211,43.789
				c-2-2-4.621-2.988-7.242-2.988s-5.243,0.99-7.242,2.988L110.4,322.167V102h112.2c5.63,0,10.2-4.57,10.2-10.2V51
				c0-5.63-4.57-10.2-10.2-10.2H212.4V20.4h61.2v20.4h-10.2c-5.63,0-10.2,4.57-10.2,10.2V91.8c0,5.63,4.57,10.2,10.2,10.2H294
				c5.63,0,10.2-4.57,10.2-10.2s-4.57-10.199-10.2-10.199h-20.4V61.2h10.2c5.63,0,10.199-4.57,10.199-10.2V10.2
				c0-5.63-4.569-10.2-10.199-10.2h-81.6c-5.63,0-10.199,4.57-10.199,10.2v40.799c0,5.63,4.569,10.2,10.199,10.2h10.2v20.4H100.2
				c-2.703,0-5.304,1.071-7.211,2.988C91.071,86.497,90,89.098,90,91.8l0.041,255c0,4.131,2.489,7.844,6.304,9.425
				c1.265,0.52,2.581,0.775,3.896,0.775c2.662,0,5.274-1.039,7.211-2.988l288.516-288.62l288.619,288.619
				c1.948,1.948,4.559,2.988,7.211,2.988c1.316,0,2.642-0.255,3.906-0.775c3.805-1.581,6.294-5.304,6.294-9.425V91.8
				C702,86.17,697.431,81.601,691.801,81.601z"/>
			<path fill="#856408" d="M661.2,530.399V367.2c0-5.63-4.569-10.2-10.199-10.2s-10.2,4.57-10.2,10.2v168.229
				c-1.805,0.938-3.56,1.978-5.201,3.151c-8.313-16.911-25.715-28.58-45.799-28.58c-25.153,0-46.114,18.309-50.256,42.289
				c-12.26,3.999-21.145,15.534-21.145,29.111c0,3.6,0.733,6.997,1.887,10.199H345c-5.63,0-10.2,4.569-10.2,10.199
				s4.57,10.2,10.2,10.2h204h40.8h71.399C683.701,612,702,593.701,702,571.2C702,548.7,683.701,530.399,661.2,530.399z M661.2,591.6
				h-71.399H549c-5.62,0-10.199-4.579-10.199-10.199c0-5.621,4.579-10.2,10.199-10.2c5.63,0,10.199-4.569,10.199-10.199
				c0-16.871,13.729-30.601,30.601-30.601c16.87,0,30.6,13.729,30.6,30.601c0,4.937,3.53,9.159,8.384,10.037
				c4.845,0.887,9.65-1.847,11.374-6.467c3.069-8.241,11.526-13.771,21.042-13.771c11.25,0,20.4,9.149,20.4,20.4
				C681.6,582.453,672.451,591.6,661.2,591.6z"/>
			<path fill="#856408" d="M436.8,204c0-22.502-18.3-40.8-40.8-40.8c-22.502,0-40.8,18.299-40.8,40.8S373.498,244.8,396,244.8
				S436.8,226.501,436.8,204z M375.6,204c0-11.25,9.149-20.4,20.4-20.4c11.25,0,20.4,9.149,20.4,20.4c0,11.25-9.148,20.4-20.4,20.4
				C384.75,224.399,375.6,215.25,375.6,204z"/>
			<path fill="#856408" d="M589.8,346.8h-81.601c-5.63,0-10.199,4.569-10.199,10.199v112.2h-10.2c-5.63,0-10.199,4.57-10.199,10.2
				s4.569,10.199,10.199,10.199h122.4c5.63,0,10.199-4.569,10.199-10.199s-4.569-10.2-10.199-10.2H600v-112.2
				C600,351.369,595.431,346.8,589.8,346.8z M579.6,469.199H518.4V428.4H579.6V469.199z M579.6,408H518.4v-40.8H579.6V408z"/>
			<path fill="#856408" d="M498,561c0-5.63-4.57-10.2-10.2-10.2h-30.6V357c0-5.63-4.57-10.199-10.2-10.199H345.001
				c-5.63,0-10.2,4.569-10.2,10.199v193.8h-30.6c-5.63,0-10.2,4.57-10.2,10.2v40.799c0,5.63,4.57,10.2,10.2,10.2
				s10.2-4.57,10.2-10.2v-30.6H487.8C493.43,571.2,498,566.631,498,561z M436.8,448.801h-10.2c-5.629,0-10.199,4.569-10.199,10.199
				s4.57,10.199,10.199,10.199h10.2V550.8h-81.601V367.2H436.8V448.801z"/>
			<path fill="#856408" d="M283.8,346.8h-81.6c-5.63,0-10.199,4.569-10.199,10.199v112.2H181.8c-5.63,0-10.199,4.57-10.199,10.2
				s4.569,10.2,10.199,10.2h122.4c5.63,0,10.199-4.569,10.199-10.199s-4.569-10.199-10.199-10.199H294V357
				C294,351.369,289.431,346.8,283.8,346.8z M273.6,469.199h-61.2V428.4h61.2V469.199z M273.6,408h-61.2v-40.8h61.2V408z"/>
		</g>
	</g>
</g>
</svg>
