<?xml version="1.0" encoding="utf-8"?>
<!-- Generator: Adobe Illustrator 16.0.0, SVG Export Plug-In . SVG Version: 6.00 Build 0)  -->
<!DOCTYPE svg PUBLIC "-//W3C//DTD SVG 1.1//EN" "http://www.w3.org/Graphics/SVG/1.1/DTD/svg11.dtd">
<svg version="1.1" id="Capa_1" xmlns="http://www.w3.org/2000/svg" xmlns:xlink="http://www.w3.org/1999/xlink" x="0px" y="0px"
	 width="792px" height="612px" viewBox="0 0 792 612" enable-background="new 0 0 792 612" xml:space="preserve">
<g>
	<g>
		<path fill="#FFEBD2" d="M524.955,177.044c-6.891-6.892-18.067-6.892-24.959,0L267.044,409.997c-6.892,6.892-6.892,18.067,0,24.959
			c3.446,3.446,7.963,5.17,12.479,5.17s9.034-1.723,12.479-5.17l232.952-232.952C531.849,195.111,531.849,183.937,524.955,177.044z"
			/>
	</g>
</g>
<g>
	<g>
		<path fill="#FFEBD2" d="M325.405,147.161c-35.683,0-64.713,29.03-64.713,64.713c0,35.682,29.031,64.712,64.713,64.712
			c35.682,0,64.712-29.03,64.712-64.712C390.117,176.191,361.087,147.161,325.405,147.161z M325.405,241.288
			c-16.219,0-29.414-13.195-29.414-29.416c0-16.219,13.195-29.414,29.414-29.414c16.219,0,29.415,13.195,29.415,29.414
			C354.819,228.093,341.624,241.288,325.405,241.288z"/>
	</g>
</g>
<g>
	<g>
		<path fill="#FFEBD2" d="M466.594,335.415c-35.682,0-64.713,29.03-64.713,64.712c0,35.683,29.031,64.713,64.713,64.713
			c35.684,0,64.713-29.03,64.713-64.713C531.307,364.445,502.276,335.415,466.594,335.415z M466.594,429.541
			c-16.219,0-29.415-13.194-29.415-29.414c0-16.219,13.195-29.414,29.415-29.414c16.221,0,29.414,13.195,29.414,29.414
			C496.008,416.347,482.812,429.541,466.594,429.541z"/>
	</g>
</g>
</svg>
