<?xml version="1.0" encoding="utf-8"?>
<!-- Generator: Adobe Illustrator 16.0.0, SVG Export Plug-In . SVG Version: 6.00 Build 0)  -->
<!DOCTYPE svg PUBLIC "-//W3C//DTD SVG 1.1//EN" "http://www.w3.org/Graphics/SVG/1.1/DTD/svg11.dtd">
<svg version="1.1" id="Capa_1" xmlns="http://www.w3.org/2000/svg" xmlns:xlink="http://www.w3.org/1999/xlink" x="0px" y="0px"
	 width="792px" height="612px" viewBox="0 0 792 612" enable-background="new 0 0 792 612" xml:space="preserve">
<g>
	<g>
		<path fill="#FFFFFF" d="M573.673,379.112c-12.529-13.046-27.642-20.021-43.658-20.021c-15.888,0-31.13,6.847-44.175,19.893
			l-40.816,40.688c-3.358-1.809-6.718-3.487-9.945-5.167c-4.65-2.325-9.042-4.521-12.788-6.846
			c-38.233-24.283-72.979-55.931-106.304-96.875c-16.146-20.409-26.996-37.588-34.875-55.025
			c10.592-9.688,20.409-19.762,29.967-29.45c3.617-3.617,7.233-7.363,10.85-10.979c27.125-27.125,27.125-62.258,0-89.383
			l-35.263-35.263c-4.004-4.004-8.137-8.137-12.012-12.271c-7.75-8.008-15.888-16.275-24.284-24.025
			C237.84,41.987,222.857,35.4,207.098,35.4c-15.758,0-31,6.587-43.917,18.987c-0.129,0.129-0.129,0.129-0.258,0.259L119.006,98.95
			c-16.534,16.533-25.963,36.683-28.029,60.062c-3.1,37.717,8.008,72.85,16.533,95.842c20.925,56.446,52.184,108.758,98.812,164.817
			c56.575,67.554,124.646,120.899,202.405,158.487c29.708,14.079,69.361,30.742,113.666,33.584c2.714,0.129,5.555,0.258,8.139,0.258
			c29.837,0,54.896-10.721,74.528-32.033c0.13-0.259,0.388-0.388,0.518-0.646c6.717-8.139,14.467-15.5,22.604-23.38
			c5.555-5.297,11.237-10.851,16.791-16.662c12.788-13.306,19.505-28.806,19.505-44.691c0-16.018-6.847-31.388-19.893-44.305
			L573.673,379.112z M619.914,515.125C619.785,515.125,619.785,515.254,619.914,515.125c-5.037,5.425-10.204,10.333-15.758,15.758
			c-8.396,8.009-16.921,16.404-24.931,25.834c-13.045,13.95-28.416,20.537-48.565,20.537c-1.938,0-4.004,0-5.941-0.129
			c-38.361-2.454-74.013-17.438-100.75-30.225c-73.109-35.394-137.305-85.639-190.65-149.317
			c-44.046-53.088-73.496-102.171-93-154.871c-12.013-32.162-16.404-57.221-14.467-80.858c1.292-15.112,7.104-27.642,17.825-38.362
			l44.046-44.046c6.329-5.941,13.045-9.171,19.633-9.171c8.137,0,14.725,4.908,18.858,9.042c0.129,0.129,0.259,0.258,0.388,0.387
			c7.879,7.363,15.371,14.983,23.25,23.121c4.004,4.133,8.138,8.267,12.271,12.529l35.262,35.263
			c13.692,13.692,13.692,26.35,0,40.042c-3.746,3.746-7.362,7.491-11.108,11.108c-10.85,11.108-21.184,21.442-32.421,31.517
			c-0.258,0.258-0.517,0.387-0.646,0.646c-11.108,11.108-9.042,21.958-6.717,29.321c0.129,0.388,0.258,0.775,0.388,1.163
			c9.171,22.217,22.087,43.142,41.721,68.071l0.129,0.129c35.65,43.917,73.237,78.146,114.701,104.366
			c5.295,3.358,10.722,6.07,15.887,8.653c4.65,2.325,9.043,4.521,12.789,6.847c0.517,0.259,1.032,0.646,1.55,0.903
			c4.392,2.196,8.523,3.229,12.787,3.229c10.721,0,17.438-6.718,19.634-8.912l44.175-44.176c4.392-4.393,11.366-9.688,19.504-9.688
			c8.009,0,14.597,5.038,18.602,9.43c0.129,0.129,0.129,0.129,0.258,0.259l71.171,71.171
			C633.09,487.871,633.09,501.434,619.914,515.125z"/>
	</g>
</g>
</svg>
